<?xml version="1.0" encoding="utf-8"?>
<!-- Generator: Adobe Illustrator 23.0.0, SVG Export Plug-In . SVG Version: 6.00 Build 0)  -->
<svg version="1.1" id="图层_1" xmlns="http://www.w3.org/2000/svg" xmlns:xlink="http://www.w3.org/1999/xlink" x="0px" y="0px"
	 viewBox="0 0 1766.4 185.2" style="enable-background:new 0 0 1766.4 185.2;" xml:space="preserve">
<style type="text/css">
	.st0{enable-background:new    ;}
	.st1{fill:#414243;}
</style>
<g class="st0">
	<path class="st1" d="M841,55.2v129.7h-11.9V75.3c-5.1,9.6-9.8,17.2-14,22.6l-9-8.8C824,66.3,837.8,39,847.2,7l11.5,3.3
		C853.2,27,847.2,41.9,841,55.2z M987.1,160.7l-8.2,10c-14.7-10.9-26.6-26-35.7-45.2c-2.7,1.6-5.9,3.3-9.6,5.1
		c2.9,8.3,4.3,17.2,4.3,26.5c0,10.8-2.2,18-6.6,21.6c-2.7,3-9,4.4-18.7,4.3c-4.4,0-9.7-0.3-15.8-0.8l-2.1-12.5
		c7.4,1.3,13.5,1.9,18.1,1.8c5.6,0.1,9.1-0.8,10.5-2.9c1.7-1.7,2.5-5.9,2.3-12.7c0-4.3-0.4-9-1.2-14.2
		c-18.1,15.5-41.6,28.4-70.6,38.8l-6.4-11.5c31.2-10,56-22.9,74.3-38.6c-1.3-4.2-3.1-7.9-5.3-11.1c-17,12.5-38,23-63,31.4l-5.8-10.5
		c27.8-8.8,48.8-18.7,63-29.6c-2.3-3.6-4.9-6.7-7.6-9.2c-14.7,8.8-31.1,16.3-49.1,22.2l-5.8-10.7c23-6.5,41.2-14.4,54.6-23.8h-37.8
		V61.4l-10.7,9.8l-7.2-9.8c22.2-17.8,39.1-36.3,50.7-55.4l9.9,5.6c-1.8,2.7-3.9,5.6-6.2,8.6c-0.1,0.3-0.3,0.5-0.4,0.6h45.8v9.5
		c-0.1,0.3-0.4,0.6-0.8,1c-5.5,7.4-9.9,13.1-13.4,17h45.2v40.8h-60.9c-1.8,1.8-4,3.6-6.4,5.5c8.1,7,14.5,15.7,19.3,26.1
		c12.6-6.8,25.3-15.6,38-26.5l7.8,9.2c-9.4,7-17.4,12.5-24,16.6C958.8,135.7,970.7,149.4,987.1,160.7z M914.9,78.2V59.3h-38.4v18.9
		H914.9z M932.3,31.4h-39c-4.8,5.9-9.9,11.4-15.2,16.8h39.8C923.5,42.5,928.4,36.9,932.3,31.4z M965.8,78.2V59.3h-39.4v18.9H965.8z"
		/>
	<path class="st1" d="M1179.7,83.9h-97.5c-3.6,3-10.3,7.2-19.9,12.7c-3.3,1.8-5.7,3.3-7.4,4.3c2.6-0.1,6.8-0.4,12.5-0.8
		c19-1.2,32.1-1.9,39.4-2.1c4.3-2.1,10.1-5.5,17.6-10.3l7.6,9.8c-19.4,10.9-44.9,21.8-76.6,32.6c31.8-2.2,61.6-4.4,89.1-6.6
		c-5.3-5.2-10.1-9.5-14.4-12.9l7.6-8c16.5,15.5,28.7,27.1,36.5,34.9l-9.2,8.8c-2.3-2.7-5.7-6.3-9.9-10.7c-1-1.2-1.8-2-2.3-2.5
		c-14.4,1-32.7,2.5-54.8,4.3v32.2c0.8,10.1-5.5,15-18.9,14.4c-4.3,0-9.9-0.3-17-0.8l-1.6-12.9c0.7,0.1,1.7,0.3,3.1,0.4
		c6.8,0.9,12,1.4,15.8,1.4c4.2,0.7,6-1.5,5.5-6.4V138c-7.2,0.5-18.1,1.2-32.8,2c-12.5,0.8-21.8,1.4-28.1,1.8l-2.9-11.1
		c22.2-5.3,44-12.6,65.3-21.8c-21.3,1-37.8,2.2-49.3,3.3l-5.7-9.6c1.3-0.7,3.2-1.6,5.7-2.7c12-5.5,20.9-10.7,26.9-15.6h-58.3V72.8
		h79V58.2h-63V46.9h63V33.8h-69.8V22.1h69.6V6.7h12.9v15.4h73.3v11.3h-73.3v13.1h65.5v11.3h-65.5v14.6h82.3V83.9L1179.7,83.9z
		 M1015.5,181.6l-7-10.9c17.2-10,31.3-19.4,42.3-28.3l7.2,8.4C1040.9,164.5,1026.7,174.8,1015.5,181.6z M1170.2,170.1l-8,11.1
		c-0.7-0.4-1.6-1-2.7-2c-16.4-11.4-30.6-20.7-42.5-27.9l6.6-9.4c9.8,5.6,22.2,13.1,37.4,22.4C1165,166.9,1168.1,168.8,1170.2,170.1z
		"/>
	<path class="st1" d="M1351.1,185.7h-13.3v-11.1h-100.6v11.1h-13.3V35.3h42.1c3.6-7.1,7.7-17.2,12.3-30.2l13.1,3.9
		c-3.4,9.4-7,18.1-10.7,26.3h70.4V185.7L1351.1,185.7z M1337.8,77.2V48h-100.6v29.3L1337.8,77.2L1337.8,77.2z M1337.8,118.4v-29
		h-100.6v29H1337.8z M1337.8,162.5v-32h-100.6v32H1337.8z"/>
	<path class="st1" d="M1571.3,171.2l-6.6,13.1c-25.1-8.5-46.4-19.2-64-32.4c-11.8,10.4-33.8,21-65.9,31.8l-7.8-11.9
		c29-7.9,50.2-17.4,63.8-28.5c-13.9-12.3-24.8-26.1-32.6-41.3c-13,32.1-31.5,57.7-55.6,76.8l-9.6-11.1
		c32.4-22.5,53.6-58.1,63.6-106.9h-40l-6.6-10.3c6.2-15.5,10.9-29,14-40.8l12.7,2.3c-3.6,13.1-7.9,25.2-12.7,36.3h34.5
		c2.3-16.5,3.4-30,3.3-40.6l14,0.8c-1,13.6-2.7,26.9-4.9,39.8h97.5v12.5H1469c-0.7,3.8-1.6,7.9-2.7,12.5c-0.8,3.1-1.4,5.7-1.9,7.8
		h79.9v9.4c-7.4,19.2-18.9,36.8-34.5,52.8C1527,156.1,1547.5,165.4,1571.3,171.2z M1529.5,93h-63.2c7.3,16,18.5,30.2,33.5,42.7
		C1513.3,122.8,1523.2,108.5,1529.5,93z M1551.4,34.7l-9.4,9c-10.5-10.7-20.1-19.6-28.7-26.9l8.6-8c0.7,0.5,1.6,1.4,2.9,2.5
		C1535.6,20.4,1544.5,28.2,1551.4,34.7z"/>
	<path class="st1" d="M1764.3,161.3c-1,12.9-8.5,19.1-22.4,18.7c-12.4,0.7-24.2,0.7-35.5,0c-14.7,0.1-21.6-7-20.7-21.5V92.4h-21.1
		c-1.9,46.2-24.6,77.3-67.9,93.6l-7-12.1c40.9-14.8,61.8-42,62.4-81.5h-59.5V79.5h77.8V6.6h12.9v72.9h78.6v12.9h-63.8v66.5
		c-0.9,6,1.9,8.8,8.6,8.4c11.4,0.7,22.8,0.7,34.1,0c6.6,0.1,9.9-2.4,9.8-7.6c0.5-3.3,1-9.1,1.4-17.5c0.3-3.9,0.4-7,0.6-9.4l13.8,5.8
		C1765.9,148.3,1765.2,155.8,1764.3,161.3z M1653.2,66.3l-11.9,7.8c-9.6-17.2-20.2-33.9-31.6-50.3l10.3-7.4
		C1634.6,37.1,1645.6,53.7,1653.2,66.3z M1712,74.5l-10.3-8c11.6-15.2,23-32.1,34.3-50.7l10.1,6.4C1734.3,42.7,1723,60.1,1712,74.5z
		"/>
</g>
<g>
	<path class="st1" d="M106.1,0.8c13,0,25.5,1.8,37.4,5.4c12,3.6,22.6,9.4,31.8,17.5c9.3,8.1,16.2,17.5,20.9,28.2s7.1,23.3,7.1,37.6
		c0,13.4-2.2,26.3-6.7,38.5s-11.3,22.8-20.7,31.7c-9.3,8.9-20.7,15.4-34.1,19.7s-27.5,6.4-42.2,6.4c-14,0-27.4-2-40.3-5.9
		s-24-10.1-33.3-18.5s-16-18-20-28.9s-6-22.6-6-35.3c0-13.9,2.5-27.1,7.5-39.8S19.9,34.3,29.6,26S50.7,11.4,63.8,7.1
		C77.1,3,91.1,0.8,106.1,0.8z M104,28.7c-13.2,0-24.6,3-34.4,9.1c-9.8,6.1-17.1,14.4-22.1,24.9c-4.9,10.5-7.4,21.9-7.4,34.1
		c0,11.3,2.4,21.8,7.1,31.3c4.8,9.6,12.1,16.8,21.9,21.9c9.9,5,20.5,7.5,31.9,7.5c8.6,0,16.9-1.5,24.7-4.5c7.9-3,14.6-7.5,20.4-13.5
		c5.7-6.1,10-13.4,12.9-21.9s4.3-17.5,4.3-26.7c0-8.6-1.3-16.9-3.9-24.9c-2.6-7.9-6.6-14.8-12-20.5s-11.9-10-19.6-12.7
		C120.4,30.1,112.4,28.7,104,28.7z"/>
	<path class="st1" d="M227.3,182.7c2.6-26.3,4.7-55.5,6.3-87.8c1.6-32.2,2.5-62.5,2.7-90.9c8.9,0.2,16.3,0.3,22.3,0.3
		c4,0,10.4-0.1,19.3-0.3c-1.2,15.7-2.2,33.6-3.2,53.7l-2.7,52.5c-0.8,15-1.4,29.9-1.7,44.8l22.5,0.3c21.2,0,35-0.1,41.7-0.2
		s13.2-0.4,19.7-0.7c-0.8,8.5-1.5,18-2.1,28.4c-23-0.2-42.6-0.3-58.9-0.3l-41.2,0.1L227.3,182.7z"/>
	<path class="st1" d="M372.1,182.7l3.8-50.1l2.8-58l1.7-52.8V4c21.6,0.2,44,0.3,67.4,0.3l25.1-0.2L510.7,4l-1.6,28.3l-12.4-0.6
		c-3.4-0.2-8.1-0.3-14.1-0.4s-12.2-0.1-18.5-0.1c-13.6,0-22.4,0-26.4,0.1c-4,0-10,0.2-18,0.5l-2.1,46.5c12,0.3,24,0.4,36.1,0.4
		c8.4,0,22.5-0.3,42.4-0.8c-0.7,7.9-1.3,17.5-1.8,28.5c-23.3-0.3-36.7-0.4-40-0.4c-10.3,0-23.1,0.3-38.5,0.8l-2.1,49l14.4,0.1
		c4.2,0,13.8-0.1,28.8-0.3l28.4-0.5l19-0.9c-0.9,10.1-1.5,19.7-1.8,28.7c-22.7-0.2-43.2-0.3-61.4-0.3l-43.1,0.1L372.1,182.7z"/>
	<path class="st1" d="M536.1,182.7l3.5-45.5l2.6-56.9l1.7-56.7c0.1-2.4,0.1-8.9,0.1-19.5c9.7,0.2,18.8,0.3,27.4,0.3
		c6.4,0,14.8-0.1,25.2-0.4s19.4-0.4,27-0.4c10.3,0,19.8,0.6,28.6,1.8c8.8,1.2,16.4,3.5,23,6.9c6.5,3.4,12.2,7.6,17,12.6
		s8.7,10.7,11.8,16.8s5.4,13,7,20.5s2.4,15.3,2.4,23.1c0,15-2.6,29.3-7.8,42.9c-5.2,13.6-12.9,24.8-23.2,33.6
		c-10.3,8.9-21.7,14.5-34.2,17.1c-12.5,2.5-26.7,3.8-42.6,3.8l-44.5-0.3C558.3,182.4,550,182.5,536.1,182.7z M576.3,154.8
		c7.2,0.3,14.2,0.5,21.2,0.5c7.9,0,15.3-0.4,22.1-1.2c6.8-0.8,12.6-2,17.5-3.7s9.8-4.7,14.7-9s9-9.2,12.1-14.9s5.5-11.9,7.2-18.8
		c1.7-6.9,2.5-13.9,2.5-21.1c0-13.1-2.2-23.8-6.7-32.3c-4.5-8.4-10.3-14.5-17.6-18.2c-7.3-3.7-18.5-5.6-33.7-5.6
		c-9.9,0-21.2,0.2-33.9,0.5L576.3,154.8z"/>
</g>
</svg>
