<?xml version="1.0" encoding="utf-8"?>
<!-- Generator: Adobe Illustrator 23.0.0, SVG Export Plug-In . SVG Version: 6.00 Build 0)  -->
<svg version="1.1" id="图层_1" xmlns="http://www.w3.org/2000/svg" xmlns:xlink="http://www.w3.org/1999/xlink" x="0px" y="0px"
	 viewBox="0 0 1750.6 182.7" style="enable-background:new 0 0 1750.6 182.7;" xml:space="preserve">
<style type="text/css">
	.st0{enable-background:new    ;}
	.st1{fill:#414243;}
</style>
<g class="st0">
	<path class="st1" d="M963.6,154.4c-1.3,10.9-8.1,16.2-20.5,15.8c-15.6,1-31.3,1-47,0c-7.4-0.3-12.3-1.8-14.8-4.5
		c-2.5-2.5-3.6-7.6-3.5-15.4V83h-1.9c-6.5,42.6-32.6,74.4-78.2,95.2l-8.2-12.3c44.5-19,69-46.6,73.5-82.9h-69.2V70.3h71.6
		c1.9-10.7,3.7-25.2,5.3-43.7h-64.2V13.9h142.3v12.7h-65.3c-1.3,16.4-3,30.9-5.1,43.7h83.1V83h-70.8v66.3c-0.9,5.7,1.5,8.3,7.2,7.6
		c14.4,0.7,29.4,0.7,44.8,0c5.1,0.5,7.7-1.5,7.8-6c0.7-2.9,1.1-8.3,1.4-16.2c0.1-3.6,0.3-6.6,0.4-8.8l13.8,6.6c0,0.4-0.1,1-0.2,2
		C965.2,143.8,964.5,150.5,963.6,154.4z"/>
	<path class="st1" d="M1062,22.2h-37.8c-1.4,10.4-3.2,19.2-5.3,26.3h34.1c-2.6,33.3-9.8,60.6-21.4,81.9c-8.2,16.5-20.9,32.3-38,47.4
		l-9.6-10.3c19.4-15.2,33.6-33.5,42.7-54.8c-1.7-1.7-4.2-4.2-7.4-7.6c-6-6-10.6-10.5-13.8-13.7l7-9.4c1.7,1.6,4.1,3.8,7.2,6.8
		c5.3,4.8,9.2,8.6,11.5,11.3c4.2-13.1,7.1-26.7,8.8-40.6h-24.4c-5.7,16.8-14.2,31.5-25.3,44.3l-9.4-8.2
		c17.4-19.9,27.7-44.4,30.8-73.5h-23.4V10.6h73.7L1062,22.2L1062,22.2z M1146.7,175.1c-7.9-0.3-16.1-5.3-24.6-15.2
		c-4-4.7-7.8-10.5-11.3-17.3c-19.4,14.3-40.3,25.5-62.8,33.5l-5.8-12.7c23.3-7.7,44.4-18.4,63.4-32.2c-4.7-11.2-8.3-24.5-10.9-40
		c-13.7,1.6-27.2,2.9-40.8,3.9l-1.4-11.7c12.5-0.9,25.9-2.1,40.2-3.5c-0.8-4.7-1.8-12.9-2.9-24.6c-12.2,1.2-22.2,2-29.8,2.5l-1-11.7
		c2.2-0.1,5.7-0.3,10.5-0.6c8.7-0.4,15.1-0.8,19.1-1.2c-0.7-6.1-1.1-11.6-1.4-16.6c-0.3-4.4-0.4-10.3-0.4-17.5V0.8h12.7V10
		c0,8.1,0.1,14.1,0.2,18.1c0.3,4.8,0.7,9.9,1.4,15.2c16.4-1.4,32.4-3,48-4.9l1,11.1c-11.4,1.4-27.4,3-48,4.7c0.1,0.8,0.3,2,0.4,3.5
		c0.4,5.2,1.3,12.2,2.7,21.1c17.4-1.6,35.6-3.6,54.4-6l1.2,11.5c-19.1,2.3-37.1,4.3-53.8,5.8c1.4,11.7,4.3,23,8.6,33.9
		c7.8-6.5,15.5-14.4,23-23.8l9.6,7.6c-7.9,9.9-17.1,19-27.5,27.3c8.8,16,17.1,24.8,24.8,26.3c4.3-0.1,7.2-10.8,8.8-32l11.5,7.2
		C1162.8,163.5,1156.5,176.3,1146.7,175.1z M1141.8,21.6l-8.4,8.8c-8.1-7.7-17.1-15.1-27.1-22.4l7.2-8
		C1123,6.4,1132.4,13.7,1141.8,21.6z"/>
	<path class="st1" d="M1187.4,171.9l-8.4-8c11.7-11.3,21.9-22.5,30.6-33.5l8,6.4C1210.2,147.1,1200.2,158.8,1187.4,171.9z
		 M1295.5,81.6h-115.6V70.7h49.7c-0.4-0.8-1-2.1-1.9-3.9c-1.7-3.3-3.2-6-4.5-8.2h-30V7.3h86v51.3h-41.3c1.2,2,2.6,5.1,4.3,9.4
		c0.5,1.2,0.9,2.1,1.2,2.7h52.3L1295.5,81.6L1295.5,81.6z M1276.7,127.9h-32.9v30.8c0.8,12-4.9,17.5-17,16.8
		c-4.8,0-11.1-0.5-18.7-1.6l-1.2-12.7c0.5,0.1,1.2,0.3,1.9,0.4c8.6,1.3,14.6,1.9,17.9,1.8c4.2,0.5,5.9-0.8,5.3-3.9v-31.6h-35.7V91.2
		h80.3L1276.7,127.9L1276.7,127.9z M1267.8,28V17.7h-63V28H1267.8z M1267.8,48.7V37.8h-63v10.9H1267.8z M1265.2,117.3v-15.8h-57.1
		v15.8H1265.2z M1283.6,153.2l-8.6,9c-7.7-8.3-15.8-16.3-24.4-23.8l7.6-7.6c4.8,4.2,10.3,9,16.6,14.6
		C1278.3,148.5,1281.2,151.1,1283.6,153.2z M1285.1,177l-7.4-10c29-20.5,53.4-42.7,73.1-66.5l8.8,8
		C1335.8,135.6,1311,158.4,1285.1,177z M1292.7,112.8l-7.4-9.4c26.7-19.6,46.4-38.1,59.3-55.4l8.8,7.4
		C1335.6,76.8,1315.3,96,1292.7,112.8z M1294.1,59.4l-7.8-8.8c22.4-17.9,39.2-34.8,50.5-50.5l9,7.2
		C1329.4,27,1312.2,44.3,1294.1,59.4z"/>
	<path class="st1" d="M1403.5,157.3v-56.7c-0.4,0.3-1,0.6-1.9,1c-6.2,2.7-14.1,6-23.6,9.8l-3.9-12.5c9.1-3.1,18.9-6.9,29.4-11.3v-37
		h-27.7V38.9h27.7V0.5h12.1v38.4h23.6v11.7h-23.6v31.8c6-2.2,13.3-5.9,22-11.1l1.9,12.1c-5.3,3-12.2,6.4-20.5,10.3
		c-1.6,0.7-2.7,1.2-3.5,1.6v60.8c0.1,7.9-1.3,13.3-4.3,16c-2.7,2.9-8,4.3-15.8,4.3c-5.2,0-10.3-0.3-15.2-1l-0.8-13.5
		c7.4,1.2,13,1.8,16.8,1.8C1401.5,163.9,1403.9,161.8,1403.5,157.3z M1553.2,165.1l-6.4,12.3c-21.2-9.4-38.3-19.8-51.5-31.4
		c-16.4,13.3-37.4,23.8-63,31.8l-5.8-12.3c25.1-7.2,45.4-16.4,61-27.9c-14.4-15.1-24.6-32.5-30.6-52.3h-12.5V73.6h43.3V42.2h-45.2
		V30.8h45.2v-31h12.1v31h48.8v11.5h-48.8v31.4h39.8l-0.2,7.8c-6,21.8-17.5,40.6-34.5,56.2C1518.4,148.9,1534.5,158.1,1553.2,165.1z
		 M1525.3,85.3h-56.6c5.3,17.2,14.5,32.2,27.5,45C1509.7,118.6,1519.4,103.6,1525.3,85.3z"/>
	<path class="st1" d="M1747.6,139l-9,11.7c-33.5-23.1-58.6-48.8-75.1-76.8v103.7h-13.8V73.8c-19.1,29.6-43.1,55.5-71.9,77.4
		l-9.2-10.7c38.3-27.8,64.5-55.6,78.4-83.3h-72.9V44.9h75.7V1.4h13.8v43.5h79.4v12.3h-77.6C1682.5,88.7,1709.9,116,1747.6,139z
		 M1724.2,27.4l-8,10.3c-1.7-1.3-4.1-3.2-7.2-5.7c-10-7.9-18.6-14.5-25.7-19.7l7.4-9.2c5.3,3.6,12.1,8.5,20.5,14.6
		C1716.5,21.9,1720.9,25.1,1724.2,27.4z"/>
</g>
<g>
	<path class="st1" d="M2.7,176.1C2,163.2,1.1,152.7,0,144.5c16.6,7.6,31.8,11.3,45.3,11.3c5.4,0,10.5-0.8,15.2-2.5s8.2-4,10.4-7
		s3.4-6.4,3.4-10.1c0-2.9-0.5-5.5-1.6-7.8c-1.6-3.1-4.3-6.4-8.1-9.8c-4.9-4.7-13.5-12.3-26-23c-5.9-5.2-10-8.9-12.3-11.1
		c-5.1-4.8-9-9.2-11.7-13S9.9,63.8,8.7,60c-1.2-3.8-1.8-7.9-1.8-12.2c0-8,2.2-15.5,6.7-22.5s11.1-12.5,20-16.4
		C42.5,4.9,53.7,3,67.2,3c12.1,0,25.8,1.5,41,4.5c0.4,8.8,1.3,18.9,2.5,30.3c-13.2-5.1-25.4-7.6-36.6-7.6c-8.3,0-15.1,1.9-20.4,5.7
		s-7.9,8.2-7.9,13.2c0,1.4,0.2,2.8,0.5,4.3s0.9,2.9,1.7,4.3s2,3.2,4,5.5c1.9,2.3,4.7,4.9,8.3,7.9c3.6,3,6.8,5.5,9.4,7.3l15.7,14.3
		c4,3.3,7.5,6.5,10.7,9.7c3.1,3.1,5.8,6.2,8.1,9c2.2,2.9,4,5.7,5.3,8.3s2.2,5.3,2.9,8.1c0.6,2.8,1,5.7,1,8.7c0,7.1-1.7,13.9-5,20.2
		s-8.1,11.5-14.3,15.6c-6.2,4.1-13,6.9-20.4,8.5s-15.2,2.4-23.4,2.4c-5.4,0-11.8-0.5-19-1.4C24,180.5,14.5,178.7,2.7,176.1z"/>
	<path class="st1" d="M239.7,2.8c12.7,0,24.8,1.7,36.4,5.2s22,9.1,31,17c9,7.8,15.8,17,20.4,27.5c4.6,10.4,6.9,22.6,6.9,36.5
		c0,13.1-2.2,25.6-6.5,37.5s-11,22.2-20.1,30.8s-20.1,15-33.2,19.2c-13,4.2-26.7,6.2-41.1,6.2c-13.6,0-26.6-1.9-39.2-5.7
		c-12.5-3.8-23.3-9.8-32.3-18s-15.5-17.5-19.4-28.1s-5.9-22-5.9-34.3c0-13.5,2.4-26.4,7.3-38.7s12.1-22.5,21.5-30.6
		C175,19.2,186,13.1,198.7,9C211.5,4.9,225.1,2.8,239.7,2.8z M237.7,30c-12.8,0-24,2.9-33.5,8.9s-16.7,14-21.5,24.2
		s-7.2,21.3-7.2,33.2c0,11,2.3,21.2,6.9,30.5c4.6,9.3,11.7,16.4,21.3,21.3s20,7.3,31.1,7.3c8.4,0,16.4-1.4,24.1-4.3
		s14.2-7.3,19.8-13.2s9.7-13,12.5-21.3s4.2-17,4.2-26c0-8.4-1.3-16.5-3.8-24.2s-6.4-14.4-11.7-19.9c-5.3-5.6-11.6-9.7-19-12.3
		C253.7,31.3,245.9,30,237.7,30z"/>
	<path class="st1" d="M358.8,179.7c1.6-18,2.7-32.7,3.3-44.2s1.4-31,2.3-58.7c0.9-27.7,1.4-46.7,1.4-57.1c0-3.1,0-7.8-0.1-13.9
		c10.7,0.2,19.6,0.3,26.6,0.3c7.1,0,15.9-0.1,26.4-0.4s19.1-0.4,25.8-0.4c9.5,0,16.7,0.4,21.5,1.2c4.8,0.8,9.1,2,12.8,3.6
		s6.9,3.6,9.4,5.9s4.7,5.1,6.6,8.3c1.8,3.2,3.2,6.6,4.1,10.3c0.9,3.7,1.3,7.5,1.3,11.3c0,4.8-0.6,9.3-1.7,13.6
		c-1.2,4.3-2.8,8.2-5,11.6s-4.7,6.4-7.6,8.8s-5.7,4.3-8.3,5.7s-6.2,2.8-10.6,4.3c4,0.8,7.2,1.7,9.5,2.5c2.4,0.8,4.9,2,7.6,3.7
		c2.7,1.7,5.3,3.8,7.7,6.4c2.4,2.6,4.3,5.3,5.8,8.2c1.4,2.9,2.6,6.1,3.4,9.6c0.8,3.5,1.2,7.2,1.2,11c0,8.2-1.8,15.6-5.3,22.4
		c-3.5,6.8-8.4,12.2-14.6,16.1c-6.2,4-13.1,6.6-20.8,7.9s-24,2-49,2l-30.8-0.1L358.8,179.7z M397.4,154.9h28.9
		c5.9,0,10.4-0.2,13.7-0.7s6.4-1.3,9.4-2.5s5.3-2.5,7-3.8c1.7-1.4,3.2-3.1,4.5-5.2s2.4-4.5,3.1-7.2s1.2-5.5,1.2-8.4
		c0-3.9-0.7-7.4-2-10.3c-1.4-3-3.4-5.5-6-7.7s-5.8-3.8-9.4-4.7c-3.6-1-9-1.5-16.3-1.5h-32.1L397.4,154.9z M400.5,78H421
		c8.7,0,14.6-0.2,17.6-0.6c3-0.4,6.2-1.3,9.5-2.5s6.1-3.1,8.4-5.7c2.3-2.6,4-5.4,5-8.5c1.1-3.1,1.6-6.3,1.6-9.5
		c0-3.1-0.6-6.1-1.7-8.9c-1.1-2.8-2.9-5.1-5.3-6.9c-2.4-1.8-5.2-3.1-8.6-4c-3.3-0.8-8.2-1.2-14.7-1.2h-30.5L400.5,78z"/>
	<path class="st1" d="M526.8,179.7c1.3-12.7,2.2-23.4,2.7-32c0.9-13.6,1.6-29.3,2.3-47s1.1-34.6,1.4-50.6c8.3,0.2,14.5,0.3,18.6,0.3
		c3.8,0,10-0.1,18.5-0.3c-1.2,14.8-2.1,28.9-2.8,42.3c-0.7,13.4-1.2,28.8-1.5,46.1s-0.5,31-0.5,41.1c-7.7-0.2-13.9-0.3-18.6-0.3
		C542.4,179.5,535.7,179.6,526.8,179.7z M533.8,28.1c0.3-8.7,0.5-15.5,0.5-20.1V3.9c7.7,0.2,14,0.3,18.8,0.3
		c6.6,0,12.8-0.1,18.5-0.3c-0.3,2.1-0.4,4.5-0.5,7.3l-0.6,16.9c-6.5-0.2-12.4-0.3-17.8-0.3C547.2,27.8,540.9,27.9,533.8,28.1z"/>
	<path class="st1" d="M598.9,179.7c1.5-16.6,2.6-30,3.1-40.1c0.9-16.9,1.9-41.1,3-72.6c0.8-23.3,1.2-39.7,1.2-49.3V5.9
		c24.4,0.2,45.7,0.3,63.9,0.3l35.6-0.1L727,6c-0.9,12.6-1.4,21.8-1.5,27.5l-18.2-0.6l-7.4-0.1H690h-19.4l-26.4,0.1l-1.5,45.7
		l21.7,0.4c16.5,0,27.1,0,31.7-0.1l17.3-0.3c-0.6,9.8-1,18.8-1.2,27c-14.8-0.3-26.5-0.5-35.3-0.5c-11,0-23,0.2-35.8,0.5l-1.4,56.3
		l-0.1,11.5v6.5l-19.5-0.3C619,179.5,612,179.6,598.9,179.7z"/>
</g>
</svg>
