<?xml version="1.0" encoding="utf-8"?>
<!-- Generator: Adobe Illustrator 23.0.0, SVG Export Plug-In . SVG Version: 6.00 Build 0)  -->
<svg version="1.1" id="图层_1" xmlns="http://www.w3.org/2000/svg" xmlns:xlink="http://www.w3.org/1999/xlink" x="0px" y="0px"
	 viewBox="0 0 966.6 211.1" style="enable-background:new 0 0 966.6 211.1;" xml:space="preserve">
<style type="text/css">
	.st0{fill:#414243;}
</style>
<g>
	<path class="st0" d="M3.1,203.3c-0.8-15.1-1.8-27.5-3.1-37c19.5,8.8,37.2,13.3,53.1,13.3c6.4,0,12.3-1,17.8-2.9s9.6-4.7,12.2-8.2
		c2.6-3.5,4-7.5,4-11.9c0-3.4-0.6-6.4-1.9-9.1c-1.9-3.7-5.1-7.5-9.5-11.5c-5.7-5.5-15.8-14.5-30.4-27c-7-6.1-11.8-10.4-14.4-13
		c-6-5.7-10.5-10.8-13.7-15.3s-5.5-9-6.9-13.5s-2.1-9.3-2.1-14.3c0-9.4,2.6-18.1,7.8-26.3C21.2,18.4,29,12,39.4,7.3
		c10.4-4.6,23.5-6.9,39.3-6.9c14.2,0,30.2,1.7,48,5.2c0.5,10.3,1.5,22.2,3,35.5c-15.5-6-29.8-9-42.9-9c-9.7,0-17.7,2.2-23.9,6.6
		s-9.3,9.6-9.3,15.4c0,1.6,0.2,3.3,0.7,5c0.4,1.7,1.1,3.4,2,5.1c0.9,1.6,2.4,3.8,4.6,6.4s5.5,5.7,9.7,9.3c4.3,3.5,7.9,6.4,11,8.6
		l18.4,16.7c4.7,3.9,8.8,7.7,12.5,11.3c3.7,3.7,6.8,7.2,9.5,10.6c2.7,3.4,4.7,6.6,6.2,9.7c1.5,3.1,2.6,6.2,3.4,9.5
		c0.7,3.2,1.1,6.6,1.1,10.2c0,8.4-2,16.2-5.8,23.7c-3.9,7.4-9.5,13.5-16.7,18.3c-7.3,4.8-15.2,8.1-23.9,9.9
		c-8.7,1.8-17.8,2.8-27.5,2.8c-6.4,0-13.8-0.5-22.2-1.6C28,208.5,16.9,206.4,3.1,203.3z"/>
	<path class="st0" d="M202.1,207.7l-17.5-53l-25.1-72.8l-9.4-26c7.7,0.2,14.7,0.3,21,0.3c6,0,12.4-0.1,19.1-0.3l34.5,111.9
		l39.6-111.9c7.5,0.2,14.6,0.3,21.4,0.3c7.2,0,14-0.1,20.5-0.3l25.6,98.6c0.3,1.5,1.3,5.9,3.1,13.1l3.4-9.8c0.1-0.2,1-2.5,2.8-7
		l23.2-58.6L378,55.9c7.6,0.2,14.1,0.3,19.6,0.3c4.5,0,11.2-0.1,20.3-0.3l-41,93.7c-8.8,20.1-17.1,39.5-24.6,58
		c-8.4-0.2-14.9-0.3-19.7-0.3c-5,0-12.5,0.1-22.7,0.3L282.6,99c-1.5,3.9-4.5,12.1-8.9,24.8l-30.3,83.9c-8.5-0.2-14.9-0.3-19.3-0.3
		C219.1,207.4,211.8,207.5,202.1,207.7z"/>
	<path class="st0" d="M439.6,89.2c1.4-7.2,2.3-12.2,2.6-15.1c0.3-2.9,1-7.3,1.9-13.1c13.5-3.2,25.5-5.4,35.8-6.7
		c10.3-1.3,20.3-1.9,30-1.9c10.9,0,21,1.3,30.1,3.8c9.2,2.5,16.3,6.6,21.5,12.2s7.8,13.6,7.8,24c0,5.7-0.8,20.1-2.4,43.3
		s-2.5,47.2-2.8,72c-7.6-0.2-14.5-0.3-20.9-0.3c-6.1,0-13.2,0.1-21.3,0.3c1.3-12,2.4-26,3.2-41.8l2-37.2c-3.8,2.5-6.7,4.2-8.7,5.2
		s-4.2,1.9-6.7,2.8c-2.5,0.8-6.9,2.1-13.1,3.9s-11.3,3.3-15.1,4.5c-3.8,1.3-7.2,2.8-10.2,4.4s-5.6,3.5-7.7,5.5s-3.6,4.2-4.6,6.4
		c-0.9,2.2-1.4,4.7-1.4,7.2c0,4.2,1.2,7.8,3.7,10.8s5.5,5.2,9.2,6.3c3.7,1.2,8,1.8,13,1.8c3.2,0,6.5-0.2,10.1-0.7
		c3.5-0.5,8.3-1.7,14.3-3.7c-2.1,5.7-4.5,14.1-7.3,25.4c-7.1,1.2-12.7,2-16.9,2.2c-4.2,0.3-8.1,0.5-11.6,0.5
		c-12.5,0-22.8-1.7-30.9-5.1s-14-8.8-17.8-16.1c-3.8-7.4-5.7-14.8-5.7-22.2c0-4.3,0.8-8.5,2.2-12.7c1.5-4.2,3.7-8,6.6-11.5
		s6.6-6.8,11.2-10.1c4.6-3.2,11.2-6.4,19.8-9.4c8.7-3,20.1-6.1,34.3-9.2c3.8-0.8,7.7-1.8,11.8-2.9c4.1-1.1,7.3-2.3,9.8-3.3
		c2.4-1.1,4.6-2.5,6.3-4.3c1.8-1.7,3.1-3.6,4-5.4c0.8-1.9,1.3-3.8,1.3-5.8c0-3.9-1.3-7.2-3.8-9.8c-2.5-2.7-5.8-4.6-9.8-5.6
		s-8.5-1.6-13.4-1.6C481.5,76.2,461.5,80.5,439.6,89.2z"/>
	<path class="st0" d="M601.3,207.7c1.5-14.9,2.6-27.4,3.2-37.5c1-15.9,1.9-34.3,2.7-55.1c0.8-20.8,1.3-40.5,1.6-59.2
		c9.7,0.2,17,0.3,21.8,0.3c4.4,0,11.7-0.1,21.7-0.3c-1.3,17.3-2.4,33.8-3.3,49.5c-0.8,15.7-1.4,33.7-1.8,54s-0.6,36.4-0.6,48.2
		c-9.1-0.2-16.3-0.3-21.8-0.3C619.6,207.4,611.8,207.5,601.3,207.7z M609.5,29.9c0.4-10.2,0.6-18.1,0.6-23.6V1.5
		c9.1,0.2,16.4,0.3,22.1,0.3c7.8,0,15-0.1,21.6-0.3c-0.3,2.5-0.5,5.3-0.6,8.5l-0.8,19.8c-7.6-0.2-14.5-0.3-20.9-0.3
		S617.9,29.7,609.5,29.9z"/>
	<path class="st0" d="M764.4,52.3c11.4,0,22.4,1.7,32.9,5.1s19.4,8.5,26.7,15.2c7.3,6.7,12.8,14.9,16.5,24.6
		c3.7,9.7,5.5,19.9,5.5,30.7c0,11.3-1.9,22.3-5.8,32.8s-9.5,19.7-16.9,27.4s-16.5,13.5-27.5,17.3s-22.7,5.7-35.2,5.7
		c-11.5,0-22.5-1.7-32.9-5.1s-19.3-8.6-26.6-15.5c-7.4-6.9-12.9-15.2-16.8-25.1c-3.8-9.8-5.7-20.1-5.7-30.9
		c0-10.9,1.7-21.4,5.2-31.3c3.5-9.9,8.9-18.8,16.3-26.5c7.4-7.8,16.9-13.8,28.4-18.1C740.2,54.5,752.1,52.3,764.4,52.3z M764.4,83.1
		c-8.6,0-16.3,2.1-23.1,6.3c-6.8,4.2-11.8,10.5-15.2,18.9c-3.3,8.4-5,17.5-5,27.3c0,8.7,1.4,16.4,4.1,23.1
		c2.7,6.8,7.2,12.2,13.4,16.4c6.2,4.2,13.6,6.3,22.1,6.3c8.7,0,16.4-2.2,23-6.5s11.6-10.7,14.9-19.1c3.3-8.4,5-17.7,5-27.8
		c0-8.3-1.3-15.8-3.9-22.5c-2.6-6.8-6.9-12.2-13-16.3C780.6,85.1,773.1,83.1,764.4,83.1z"/>
	<path class="st0" d="M964.7,176.5c-1.2,5.5-3.1,15.6-5.7,30.5c-8.4,1.9-14.9,3.1-19.7,3.6c-4.8,0.5-9.3,0.7-13.4,0.7
		c-7.4,0-13.9-0.7-19.8-2.1c-5.8-1.4-10.6-3.9-14.4-7.4s-6.3-7.7-7.7-12.4c-1.3-4.7-2-9.6-2-14.7c0-1.3,0.1-3,0.2-5.2
		s0.5-9.3,1.2-21.2l3.4-62.1h-21.5c0.5-6,0.9-15.6,1.3-28.8h22.5c0.6-5.8,1.2-15.6,1.8-29.4l17.6-3.4c3.7-0.7,10.8-2.3,21.4-4.9
		c-0.7,13.4-1.1,26-1.2,37.8h37.9c-0.7,13.4-1.1,23-1.1,28.8h-38.1c-2.1,40.5-3.1,63.9-3.1,70.3c0,6.2,0.7,11,2,14.3
		s3.5,5.8,6.5,7.3s6.2,2.2,9.6,2.2c2.5,0,5.1-0.2,7.8-0.6C953,179.4,957.8,178.3,964.7,176.5z"/>
</g>
</svg>
