<?xml version="1.0" encoding="utf-8"?>
<!-- Generator: Adobe Illustrator 23.0.0, SVG Export Plug-In . SVG Version: 6.00 Build 0)  -->
<svg version="1.1" id="图层_1" xmlns="http://www.w3.org/2000/svg" xmlns:xlink="http://www.w3.org/1999/xlink" x="0px" y="0px"
	 viewBox="0 0 2005.9 181.9" style="enable-background:new 0 0 2005.9 181.9;" xml:space="preserve">
<style type="text/css">
	.st0{fill:#414243;}
	.st1{enable-background:new    ;}
</style>
<g>
	<g>
		<path class="st0" d="M942.1,162.5l-11.2-31.1h-56.4l-11,31.1h-13.4L896,40.2h13.6l45.9,122.3H942.1z M927.1,120.6l-24.3-68
			l-24.5,68H927.1z"/>
		<path class="st0" d="M1020.1,165c-34.2,0-51.4-24.3-51.4-53.8V91.6c0-29.5,17.1-53.8,51.4-53.8c34.3,0,51.4,24.3,51.4,53.8v19.6
			C1071.4,140.7,1054.3,165,1020.1,165z M1057.8,111.9v-21c0-23.1-11.7-41.8-37.7-41.8c-26,0-37.7,18.7-37.7,41.8v21
			c0,23.1,11.7,41.8,37.7,41.8C1046.1,153.7,1057.8,134.9,1057.8,111.9z"/>
		<path class="st0" d="M1193.2,87.2v28.3c0,27.2-17.1,47-48.2,47h-45.9V40.2h45.9C1176.1,40.2,1193.2,60,1193.2,87.2z M1179.8,115.6
			V87.3c0-21.3-12.6-35.8-36.7-35.8h-30.6v99.9h30.6C1167.2,151.4,1179.8,136.9,1179.8,115.6z"/>
	</g>
	<g>
		<path class="st0" d="M37.8,163.7L40,134l2.2-44.3l1.4-43.6h-7.1l-6.6,0.1l-6.3,0.1L0.1,47C0.7,37.2,1,29.8,1,24.7
			c19.5,0.1,40,0.2,61.4,0.2l36.5-0.1l19.5-0.1c-0.7,9.7-1,17.1-1,22.3c-12.3-0.6-24-0.9-35.3-0.9h-7.8l-1.2,18.6l-2.9,71.5l-0.2,12
			c-0.1,5-0.1,10.1-0.1,15.4l-15.5-0.2C52.7,163.5,47.2,163.6,37.8,163.7z"/>
		<path class="st0" d="M126.4,163.7l3-48.4l0.8-28.1c0.1-5.8,0.2-11.6,0.2-17.4c0-1-0.1-4.2-0.2-9.7c6.3,0.1,11,0.2,14,0.2
			c3.5,0,8-0.1,13.7-0.2l-0.5,14.4c2.6-3.7,4.8-6.4,6.6-8.2s3.9-3.3,6.2-4.6c2.3-1.3,4.8-2.3,7.6-3c2.8-0.7,5.6-1,8.5-1
			c2.7,0,5.5,0.3,8.4,1c0,6.3,0.3,14.3,0.9,24c-4-1.1-7.6-1.6-10.9-1.6c-3.9,0-7.4,0.6-10.4,1.8c-3,1.2-5.7,3-8.1,5.4
			s-4.4,5.4-6,8.9c-1.3,2.9-2.2,6.5-2.9,11.1c-0.5,3.5-1,9.6-1.3,18.1s-0.5,17-0.5,25.2c0,3.2,0.1,7.2,0.3,12
			c-5.2-0.1-9.9-0.2-14.2-0.2C137.2,163.5,132.2,163.6,126.4,163.7z"/>
		<path class="st0" d="M299.8,140.6c-0.9,4-2.1,11.2-3.8,21.6c-7.3,1.5-13.5,2.6-18.5,3.2c-5,0.5-10.1,0.8-15.2,0.8
			c-8.9,0-16.9-0.9-23.9-2.6c-7-1.8-13.2-5-18.5-9.7s-9.2-10.5-11.7-17.3s-3.8-14-3.8-21.5c0-8.3,1.5-16.4,4.4-24.3
			c2.9-7.8,7-14.2,12.3-19.2s11.3-8.5,18-10.6s13.7-3.1,21.1-3.1c6.9,0,13.5,0.9,19.8,2.6c6.2,1.7,11.5,4.6,15.7,8.5
			s7.5,8.7,9.8,14.2s3.4,11.7,3.4,18.4c0,3.2-0.3,6.5-1,9.9l-74.6,0.1c-0.1,2.5-0.2,4.5-0.2,6c0,4.5,0.8,8.7,2.3,12.5s3.8,7,6.8,9.7
			s6.5,4.6,10.7,5.8c4.1,1.3,8.2,1.9,12.2,1.9c4.7,0,9.8-0.5,15.2-1.5C285.8,144.8,292.3,143,299.8,140.6z M234.1,99.5l47.6,0.1
			c0-3.3-0.1-5.6-0.3-7.2c-0.2-1.5-0.7-3.3-1.4-5.3c-0.7-2-1.7-3.8-2.9-5.3s-2.6-2.8-4.3-3.8c-1.6-1-3.5-1.8-5.6-2.3
			s-4.4-0.8-6.9-0.8c-2.9,0-5.6,0.4-8.3,1.3c-2.7,0.9-5.1,2.2-7.4,3.9s-4,3.6-5.4,5.7s-2.4,4.1-3.1,6
			C235.4,93.6,234.7,96.2,234.1,99.5z"/>
		<path class="st0" d="M323.5,163.7c1.5-15.4,2.9-32.7,3.9-51.9c1-19.2,1.6-36.4,1.8-51.6c6.3,0.1,11.2,0.2,15,0.2
			c4.4,0,9.1-0.1,14.1-0.2l-1.1,17.3c2.1-3,4-5.4,5.5-7.1c1.6-1.8,3.6-3.5,6.1-5.2s5.1-3,7.9-4.1c2.8-1,6-1.8,9.5-2.4
			s7.1-0.9,10.9-0.9c6,0,11.8,0.8,17.4,2.3c5.5,1.5,10,4,13.4,7.3s5.6,7,6.7,10.9c1.1,3.9,1.6,8.1,1.6,12.5c0,1.8-0.1,4.8-0.3,8.8
			l-2.1,44.5c-0.3,6.2-0.4,12.8-0.5,19.8c-5.4-0.1-10-0.2-13.8-0.2c-5.2,0-10.4,0.1-15.6,0.2c0.5-5.9,1.2-16.2,2-30.9
			s1.2-24.4,1.2-29.2c0-5.4-0.8-9.7-2.5-12.9s-4.3-5.7-7.9-7.4c-3.6-1.7-7.4-2.5-11.5-2.5s-7.9,0.8-11.4,2.3s-6.6,3.8-9.2,6.8
			c-2.7,3-4.8,6.8-6.3,11.3c-1.6,4.8-2.7,12.6-3.5,23.5c-0.7,9.7-1.2,22.7-1.6,39c-5.2-0.1-10-0.2-14.2-0.2
			C334.9,163.5,329.7,163.6,323.5,163.7z"/>
		<path class="st0" d="M454.9,161.8l-2.2-22.4c6.7,2.7,12.3,4.6,16.9,5.7c4.6,1,8.9,1.6,12.7,1.6s7.1-0.5,9.8-1.4s4.6-2.3,5.9-4.1
			c1.3-1.8,1.9-3.7,1.9-5.7c0-0.9-0.1-1.7-0.3-2.4c-0.2-0.8-0.5-1.5-0.9-2.3s-1-1.6-1.5-2.3c-0.6-0.7-1.4-1.5-2.4-2.4
			s-2.5-2.1-4.4-3.5l-5.5-4.4c-5.3-4.1-9.3-7.4-12.1-9.8s-5.1-4.8-7-7.3s-3.3-5.1-4.3-7.8c-1-2.8-1.5-5.5-1.5-8.4
			c0-5,1.5-9.7,4.5-14.1c3-4.5,7.4-7.8,13.2-9.8c5.8-2.1,12.6-3.1,20.4-3.1c8.9,0,19.1,1.1,30.7,3.2l1.3,21.3
			c-7.9-3.2-15.4-4.8-22.7-4.8c-3.9,0-7.4,0.4-10.3,1.2s-5.1,2-6.4,3.6c-1.3,1.6-1.9,3.4-1.9,5.3c0,1.2,0.2,2.3,0.6,3.4
			c0.4,1.1,1.1,2.3,2.1,3.5s2.2,2.4,3.5,3.5s4.1,3.2,8.3,6.4c4.2,3.2,7.9,6.1,11,8.6c3.2,2.6,5.8,5.2,7.8,7.8s3.6,5.4,4.7,8.4
			c1.1,3,1.6,6,1.6,9.1c0,5.1-1.6,9.8-4.7,14.1c-3.1,4.3-7.8,7.7-14.1,10.2c-6.3,2.4-13.4,3.7-21.2,3.7c-4.1,0-9-0.3-14.9-1
			C467.8,164.5,461.6,163.4,454.9,161.8z"/>
		<path class="st0" d="M532.5,163.7c7.1-12.5,15.3-27.9,24.8-46.3L584.1,66c8.3-15.9,15.3-29.6,20.8-41.2c8.8,0.1,15.1,0.2,18.7,0.2
			c6.4,0,12.8-0.1,18.9-0.2L657,66.4l31.6,86.1l4.4,11.2l-15.2-0.2c-3.5,0-9.5,0.1-17.8,0.2c-1.6-6-4.2-14.2-7.7-24.4
			s-6.5-18.6-8.9-24.9h-53.5c-7.9,16.1-15.7,32.6-23.2,49.4l-16.6-0.2C547,163.5,541.1,163.6,532.5,163.7z M598.9,93.1h39l-16-47.1
			l-8.2,17.1L598.9,93.1z"/>
		<path class="st0" d="M708.1,163.7c1.6-23.3,2.9-47.3,4-71.8c1-24.5,1.5-43.3,1.5-56.2l-0.1-10.9l17,0.2c0.9,0,6.1-0.1,15.6-0.2
			c-2.8,35.7-4.5,82-5.3,138.9l-15-0.2C723.3,163.5,717.4,163.6,708.1,163.7z"/>
	</g>
</g>
<g class="st1">
	<path class="st0" d="M1258.3,173.1l-10.7-5.3c4.4-9.5,9.6-22.1,15.4-37.8c1-2.9,1.8-5,2.3-6.4l10.7,4.1c-0.8,2.2-1.9,5.3-3.3,9.4
		C1267.5,151.4,1262.7,163.5,1258.3,173.1z M1387.2,114.8h-112.1V19.3h34.9c3-4.7,5.8-9.8,8.4-15.4c0.8-1.6,1.4-2.8,1.8-3.7
		l11.5,4.5c-1,2-2.2,4.2-3.5,6.6c-1.6,3.3-3.1,5.9-4.5,8h63.6L1387.2,114.8L1387.2,114.8z M1375.5,47.7V30.9H1287v16.8H1375.5z
		 M1375.5,74.4v-16H1287v16H1375.5z M1375.5,103.1v-18H1287v18H1375.5z M1372,172.9c-2.7,2.6-12.6,3.9-29.6,3.9
		c-25.7,0-40.8-1-45.2-3.1c-5.5-1.4-8.2-6.5-8.2-15.2v-36.1h12.3v34.7c0,3.6,0.8,5.7,2.5,6.2c1.8,0.9,14.7,1.4,38.6,1.4
		c12.3,0,19.6-0.8,21.6-2.5c2.2-1.8,4-10.8,5.3-26.9l13.1,7.4C1380.1,160.9,1376.7,170.9,1372,172.9z M1355.8,145.8l-8,9.9
		c-12.7-11.3-23.9-20.8-33.3-28.5l7.2-8.8c2.3,1.8,5.5,4.2,9.4,7.2C1340.6,133,1348.9,139.7,1355.8,145.8z M1421.3,157.9l-10.1,8.4
		c-6.5-9.4-16.7-22.2-30.6-38.4l8.8-7.8C1402.7,135,1413.4,147.6,1421.3,157.9z"/>
	<path class="st0" d="M1502.6,54.1h-33.5v30.8c0.5,35-7,66.9-22.6,95.9l-10.7-6.4c14.8-28.5,21.8-58,20.9-88.5V13h144.1v41.1H1579
		l4.9,2.5c-0.9,1.2-2.1,2.9-3.5,5.1c-5.7,8.3-10.1,14.4-13.1,18.1h36.8v11.3H1570v27h42.3v11.7H1570v51.7h-11.9v-51.7h-33.3
		c-2.5,25.2-19,42.6-49.5,52.3l-6.2-11.3c27.8-8.5,42.3-22.1,43.5-41h-38.8v-11.7h40.2l0.4-26.9h-32.6V79.9h31.4
		c-2.2-3-5.5-7.1-9.9-12.5c-2.9-3.5-5.1-6.3-6.8-8.4L1502.6,54.1z M1587.8,42.4V24.5H1469v17.9H1587.8z M1570.5,54.1h-61.8
		c7.4,9.1,14,17.7,19.7,25.7h24.2C1560.2,70.4,1566.2,61.8,1570.5,54.1z M1558,118.1V91.2h-31.8l-0.4,26.9H1558z"/>
	<path class="st0" d="M1808,172.7h-172.4v-11.9h60.8V89h-38.6V12.2h127.9V89h-41.1v71.8h63.4L1808,172.7L1808,172.7z M1676.8,144.8
		l-12.1,5.7c-6.9-20.4-13.1-36.8-18.5-49.1l10.7-4.7C1665.7,115.1,1672.3,131.2,1676.8,144.8z M1772.9,44.4V23.9h-102.2v20.5H1772.9
		z M1772.9,77V55.4h-102.2V77H1772.9L1772.9,77z M1731.5,160.8V89h-22v71.8H1731.5z M1771.9,151.3l-11.1-6.4
		c9.2-16.3,17-31.7,23.4-46.4l11.7,5.5C1789,119.9,1781,135.6,1771.9,151.3z"/>
	<path class="st0" d="M1838,159.6l-9.9-9c19.6-20.9,36.3-41.4,49.9-61.4l10.5,7C1874.6,116.8,1857.8,137.9,1838,159.6z M2001.4,73.4
		h-75.7v87.2c1,12.7-4.9,18.7-17.8,17.8c-9.2,0-20.1-0.8-32.6-2.5l-1.2-14c15.5,2.5,26.4,3.6,32.8,3.5c4.2,0.5,6-1,5.5-4.7V73.5
		h-81.5V60.6h170.4v12.8H2001.4z M1981.5,28.8h-129.1V15.9h129.1V28.8z M2005.9,149.1l-10.7,10.5c-14.4-19.2-31.5-40-51.1-62.2
		l9.2-8.4C1970.8,107.6,1988.4,127.6,2005.9,149.1z"/>
</g>
</svg>
