<?xml version="1.0" encoding="utf-8"?>
<!-- Generator: Adobe Illustrator 23.0.0, SVG Export Plug-In . SVG Version: 6.00 Build 0)  -->
<svg version="1.1" id="图层_1" xmlns="http://www.w3.org/2000/svg" xmlns:xlink="http://www.w3.org/1999/xlink" x="0px" y="0px"
	 viewBox="0 0 879.1 167.4" style="enable-background:new 0 0 879.1 167.4;" xml:space="preserve">
<style type="text/css">
	.st0{fill:#414243;}
</style>
<g>
	<path class="st0" d="M45.5,164.5l2.6-35l2.6-52.1l1.7-51.3H44l-7.8,0.1l-7.4,0.1L1.2,27.1c0.6-11.5,1-20.2,1.1-26.2
		c23,0.2,47.1,0.2,72.2,0.2l43-0.1l23-0.1c-0.8,11.4-1.2,20.1-1.2,26.2C124.8,26.4,111,26,97.7,26h-9.2l-1.4,21.9l-3.4,84.2
		l-0.2,14.1c-0.1,5.8-0.1,11.9-0.1,18.2l-18.2-0.2C63,164.2,56.5,164.3,45.5,164.5z"/>
	<path class="st0" d="M149.7,164.5l3.5-56.9l1-33.1c0.2-6.8,0.2-13.6,0.2-20.5c0-1.2-0.1-5-0.2-11.4c7.4,0.2,12.9,0.2,16.4,0.2
		c4.1,0,9.5-0.1,16.2-0.2l-0.6,16.9c3-4.3,5.6-7.5,7.8-9.6s4.6-3.9,7.3-5.5c2.7-1.5,5.7-2.7,8.9-3.5c3.3-0.8,6.6-1.2,10.1-1.2
		c3.2,0,6.5,0.4,9.8,1.2c0,7.4,0.4,16.9,1.1,28.3c-4.7-1.3-9-1.9-12.8-1.9c-4.6,0-8.7,0.7-12.3,2.1s-6.8,3.5-9.6,6.3
		s-5.2,6.3-7,10.5c-1.5,3.3-2.6,7.7-3.3,13.1c-0.6,4.2-1.1,11.3-1.6,21.3c-0.4,10.1-0.6,20-0.6,29.7c0,3.8,0.1,8.5,0.4,14.1
		c-6.1-0.2-11.6-0.2-16.7-0.2C162.5,164.2,156.6,164.3,149.7,164.5z"/>
	<path class="st0" d="M353.9,137.3c-1,4.7-2.5,13.2-4.4,25.4c-8.6,1.8-15.9,3.1-21.8,3.7c-5.9,0.6-11.9,1-17.8,1
		c-10.5,0-19.8-1-28.1-3.1c-8.3-2.1-15.5-5.9-21.8-11.4s-10.9-12.5-13.8-20.5c-3-8-4.4-16.5-4.4-25.4c0-9.8,1.7-19.3,5.2-28.5
		c3.4-9.2,8.3-16.8,14.4-22.6c6.2-5.9,13.2-10,21.2-12.5c7.9-2.4,16.2-3.6,24.8-3.6c8.2,0,15.9,1,23.3,3c7.3,2,13.5,5.4,18.5,10
		S358,63,360.7,69.5s4,13.7,4,21.7c0,3.8-0.4,7.6-1.2,11.6l-87.8,0.1c-0.2,3-0.2,5.3-0.2,7.1c0,5.3,0.9,10.3,2.8,14.7
		c1.8,4.5,4.5,8.3,8,11.4s7.7,5.4,12.6,6.9s9.7,2.2,14.4,2.2c5.5,0,11.5-0.6,17.9-1.8C337.4,142.2,345,140.1,353.9,137.3z
		 M276.5,88.9l56.1,0.1c0-3.8-0.1-6.7-0.4-8.5c-0.2-1.8-0.8-3.9-1.6-6.3c-0.8-2.3-2-4.4-3.4-6.2s-3.1-3.3-5-4.5
		c-1.9-1.2-4.1-2.1-6.7-2.7s-5.2-1-8.1-1c-3.4,0-6.6,0.5-9.8,1.5c-3.2,1-6.1,2.5-8.7,4.5c-2.6,2-4.8,4.2-6.4,6.7s-2.9,4.8-3.7,7.1
		C278.1,82,277.3,85,276.5,88.9z"/>
	<path class="st0" d="M381.8,164.5c1.8-18.1,3.3-38.5,4.6-61.1c1.2-22.6,1.9-42.9,2.1-60.8c7.4,0.2,13.2,0.2,17.6,0.2
		c5.2,0,10.7-0.1,16.6-0.2L421.4,63c2.5-3.5,4.7-6.3,6.5-8.4c1.9-2.1,4.3-4.1,7.2-6.1s6-3.6,9.3-4.8c3.3-1.2,7-2.2,11.1-2.9
		c4.1-0.7,8.4-1.1,12.9-1.1c7.1,0,13.9,0.9,20.4,2.7c6.5,1.8,11.8,4.6,15.8,8.6c4,3.9,6.6,8.2,7.9,12.8c1.3,4.6,1.9,9.5,1.9,14.7
		c0,2.2-0.1,5.6-0.4,10.3l-2.5,52.3c-0.3,7.3-0.5,15-0.6,23.3c-6.3-0.2-11.7-0.2-16.2-0.2c-6.1,0-12.2,0.1-18.3,0.2
		c0.6-7,1.4-19.1,2.4-36.4c1-17.3,1.4-28.7,1.4-34.3c0-6.3-1-11.4-3-15.2s-5.1-6.8-9.3-8.8c-4.2-2-8.7-3-13.6-3
		c-4.8,0-9.3,0.9-13.4,2.8s-7.7,4.5-10.8,8c-3.2,3.6-5.7,8-7.4,13.3c-1.8,5.6-3.2,14.8-4.1,27.7c-0.8,11.4-1.4,26.7-1.9,45.9
		c-6.2-0.2-11.7-0.2-16.7-0.2C395.1,164.2,389,164.3,381.8,164.5z"/>
	<path class="st0" d="M536.5,162.2l-2.6-26.4c7.8,3.2,14.5,5.4,19.9,6.7c5.4,1.2,10.4,1.8,15,1.8s8.4-0.5,11.5-1.6s5.4-2.7,6.9-4.8
		s2.3-4.3,2.3-6.7c0-1-0.1-2-0.3-2.9c-0.2-0.9-0.6-1.8-1.1-2.8s-1.1-1.8-1.8-2.7c-0.7-0.8-1.6-1.8-2.8-2.9c-1.2-1.1-2.9-2.5-5.2-4.1
		l-6.5-5.2c-6.2-4.9-11-8.7-14.3-11.5s-6-5.7-8.3-8.6c-2.2-2.9-3.9-6-5.1-9.2s-1.7-6.5-1.7-9.9c0-5.8,1.8-11.4,5.3-16.6
		c3.6-5.3,8.7-9.1,15.5-11.6c6.8-2.4,14.8-3.7,24-3.7c10.5,0,22.5,1.2,36.2,3.7l1.6,25c-9.3-3.8-18.2-5.6-26.7-5.6
		c-4.6,0-8.7,0.5-12.2,1.4c-3.5,0.9-6,2.3-7.5,4.2s-2.3,4-2.3,6.3c0,1.4,0.2,2.7,0.7,4s1.3,2.7,2.5,4.1c1.2,1.4,2.6,2.8,4.1,4.1
		c1.6,1.3,4.8,3.8,9.8,7.5c4.9,3.8,9.3,7.2,13,10.2s6.8,6.1,9.2,9.2c2.4,3.1,4.2,6.4,5.5,9.9s1.9,7.1,1.9,10.7
		c0,6-1.8,11.5-5.5,16.7c-3.7,5.1-9.2,9.1-16.7,12c-7.4,2.9-15.7,4.3-24.9,4.3c-4.8,0-10.6-0.4-17.5-1.1
		C551.6,165.4,544.3,164.1,536.5,162.2z"/>
	<path class="st0" d="M627.7,164.5c8.3-14.7,18.1-32.9,29.3-54.5l31.5-60.5c9.8-18.7,18-34.9,24.4-48.5c10.4,0.2,17.7,0.2,22.1,0.2
		c7.6,0,15-0.1,22.3-0.2l17.1,49l37.2,101.4l5.2,13.2l-17.9-0.2c-4.1,0-11.1,0.1-20.9,0.2c-1.9-7.1-4.9-16.7-9.1-28.8
		c-4.1-12.1-7.6-21.8-10.5-29.4h-63c-9.3,19-18.4,38.4-27.3,58.1l-19.5-0.2C644.8,164.2,637.9,164.3,627.7,164.5z M706,81.4h45.9
		l-18.8-55.5l-9.7,20.2L706,81.4z"/>
	<path class="st0" d="M834.4,164.5c1.9-27.5,3.5-55.7,4.7-84.5c1.2-28.9,1.8-50.9,1.8-66.2L840.8,1l20,0.2c1.1,0,7.2-0.1,18.3-0.2
		c-3.3,42-5.3,96.5-6.2,163.5l-17.6-0.2C852.3,164.2,845.4,164.3,834.4,164.5z"/>
</g>
</svg>
